<svg width="66" height="66" viewBox="0 0 66 66" fill="none" xmlns="http://www.w3.org/2000/svg">
<g clip-path="url(#clip0_6_37)">
<path d="M58.5 34C58.5 52.2254 54.5 68 33 67C15 68.5 7 54.2254 7 36C7 17.7746 14.7746 1 33 1C51.2254 1 58.5 15.7746 58.5 34Z" fill="white"/>
<path fill-rule="evenodd" clip-rule="evenodd" d="M33 0C51.2259 0 66 15.1468 66 33.8347C66 48.7804 56.5554 61.4591 43.4511 65.9372C41.778 66.2705 41.184 65.2138 41.184 64.3129C41.184 63.1975 41.2236 59.5545 41.2236 55.0269C41.2236 51.8721 40.1676 49.813 38.9829 48.7636C46.332 47.9254 54.054 45.0641 54.054 32.0687C54.054 28.3727 52.7736 25.3566 50.655 22.9872C50.9982 22.1325 52.1301 18.691 50.3316 14.0314C50.3316 14.0314 47.5662 13.1248 41.2665 17.5006C38.6298 16.7515 35.805 16.3746 33 16.3614C30.195 16.3746 27.3735 16.7515 24.7401 17.5006C18.4338 13.1248 15.6618 14.0314 15.6618 14.0314C13.8699 18.691 15.0018 22.1325 15.3417 22.9872C13.233 25.3566 11.9427 28.3727 11.9427 32.0687C11.9427 45.0311 19.6482 47.9363 26.9775 48.791C26.0337 49.6358 25.179 51.1261 24.882 53.314C23.001 54.1786 18.2226 55.675 15.279 50.5039C15.279 50.5039 13.5333 47.2529 10.2201 47.0153C10.2201 47.0153 7.0026 46.9726 9.9957 49.0714C9.9957 49.0714 12.1572 50.1109 13.6587 54.0214C13.6587 54.0214 15.5958 60.0603 24.7764 58.0143C24.7929 60.8424 24.8226 63.5077 24.8226 64.3129C24.8226 65.2072 24.2154 66.2539 22.5687 65.9404C9.45449 61.4689 0 48.7837 0 33.8347C0 15.1468 14.7774 0 33 0Z" fill="black"/>
</g>
<defs>
<clipPath id="clip0_6_37">
<rect width="66" height="66" fill="white"/>
</clipPath>
</defs>
</svg>
