<svg width="66" height="66" viewBox="0 0 66 66" fill="none" xmlns="http://www.w3.org/2000/svg">
<g clip-path="url(#clip0_6_42)">
<rect x="6" y="10" width="52" height="51" fill="white"/>
<path d="M60.6854 0.0410684H5.68539C4.97649 0.00786243 4.26796 0.114774 3.60042 0.355744C2.93288 0.596714 2.31944 0.966963 1.79514 1.44528C1.27089 1.92363 0.846095 2.5007 0.54514 3.1434C0.244184 3.78613 0.0729216 4.4819 0.0411987 5.19088V60.3146C0.0827268 61.7982 0.690733 63.21 1.74035 64.2594C2.78996 65.3091 4.20159 65.9172 5.68539 65.9588H60.6854C62.1277 65.8945 63.4877 65.2675 64.4736 64.2124C65.4595 63.1573 65.9926 61.7582 65.9588 60.3146V5.19088C65.9707 4.50081 65.8414 3.81563 65.579 3.1773C65.3165 2.53902 64.9264 1.96104 64.4324 1.47881C63.9388 0.996626 63.3518 0.620403 62.7074 0.373171C62.0631 0.125938 61.3751 0.0129298 60.6854 0.0410684ZM20.6405 55H11.0412V25.6255H20.6405V55ZM16.0674 21.1759C15.3976 21.1993 14.7301 21.0838 14.107 20.8369C13.4839 20.5899 12.9186 20.2168 12.4466 19.7409C11.9746 19.265 11.6061 18.6967 11.3642 18.0716C11.1224 17.4465 11.0124 16.7781 11.0412 16.1085C11.0116 15.4316 11.1238 14.756 11.3706 14.1251C11.6174 13.4941 11.9934 12.9217 12.4744 12.4445C12.9554 11.9674 13.5308 11.5961 14.1638 11.3544C14.7967 11.1127 15.4732 11.006 16.1498 11.0411C16.8197 11.0178 17.4871 11.1331 18.1102 11.3801C18.7333 11.627 19.2987 12.0002 19.7706 12.4761C20.2426 12.9519 20.6112 13.5203 20.853 14.1454C21.0949 14.7705 21.2048 15.4388 21.176 16.1085C21.2057 16.7854 21.0935 17.461 20.8466 18.0919C20.5998 18.7229 20.2239 19.2953 19.7429 19.7724C19.2618 20.2496 18.6864 20.6209 18.0535 20.8626C17.4205 21.1043 16.744 21.211 16.0674 21.1759ZM55 55H45.3596V38.9326C45.3596 35.1011 44 32.4644 40.5805 32.4644C39.5184 32.4735 38.4848 32.8109 37.6221 33.4305C36.759 34.0501 36.1088 34.9215 35.7603 35.9251C35.4925 36.6774 35.3805 37.4762 35.4307 38.2734V55H25.9551V25.6255H35.4307V29.7453C36.2732 28.1975 37.5269 26.9129 39.0537 26.0329C40.5805 25.1533 42.3207 24.7128 44.0824 24.7602C50.3034 24.7602 55 28.8801 55 37.6554V55Z" fill="black"/>
</g>
<defs>
<clipPath id="clip0_6_42">
<rect width="66" height="66" fill="white"/>
</clipPath>
</defs>
</svg>
